<svg id="Layer_1" data-name="Layer 1" xmlns="http://www.w3.org/2000/svg" viewBox="0 0 585.8 698.79"><defs><style>.cls-1{fill:#9a6cff;}.cls-1,.cls-10,.cls-2,.cls-3,.cls-4,.cls-5,.cls-6,.cls-7,.cls-8,.cls-9{opacity:0.52;}.cls-2{fill:#7550d8;}.cls-3{fill:#ec297b;}.cls-4{fill:#26a9e0;}.cls-5{fill:#fff100;}.cls-6{fill:#f05a28;}.cls-7{fill:#8bc53f;}.cls-8{fill:#f6921e;}.cls-9{fill:#eb008b;}.cls-10{fill:#00adee;}</style></defs><rect class="cls-1" width="585.8" height="698.79"/><rect class="cls-2" x="32.17" y="33.73" width="521.47" height="185.74"/><rect class="cls-2" x="32.17" y="255.36" width="521.47" height="185.74"/><rect class="cls-2" x="32.17" y="476.99" width="521.47" height="185.74"/><rect class="cls-3" x="32.23" y="75.54" width="28.78" height="143.93"/><rect class="cls-4" x="79.46" y="63.93" width="40.87" height="153.16" transform="translate(-41.95 42.52) rotate(-19.95)"/><rect class="cls-4" x="167.97" y="192.81" width="158.13" height="26.66"/><rect class="cls-5" x="198.18" y="171.49" width="117.27" height="21.32"/><rect class="cls-6" x="155.54" y="147.5" width="179.45" height="23.98"/><rect class="cls-7" x="188.38" y="131.34" width="137.73" height="16.17"/><rect class="cls-7" x="344.43" y="61.92" width="17.92" height="157.55"/><rect class="cls-4" x="362.34" y="97.76" width="39.42" height="121.71"/><rect class="cls-3" x="401.76" y="61.92" width="25.08" height="157.55"/><rect class="cls-8" x="426.85" y="88.8" width="25.08" height="130.67"/><rect class="cls-3" x="451.93" y="61.92" width="30.46" height="157.55"/><rect class="cls-3" x="508.13" y="79.36" width="16.13" height="143.93" transform="translate(117.13 -209.37) rotate(25.77)"/><rect class="cls-8" x="32.23" y="319.75" width="34.88" height="121.35"/><rect class="cls-5" x="67.11" y="274.26" width="23.36" height="166.83"/><rect class="cls-7" x="90.46" y="296.39" width="14.75" height="144.7"/><rect class="cls-9" x="105.22" y="268.12" width="12.29" height="172.98"/><rect class="cls-4" x="133.17" y="289.29" width="30.73" height="151.81" transform="translate(72.52 -21.65) rotate(11.02)"/><rect class="cls-6" x="174.69" y="311.27" width="23.49" height="129.83"/><rect class="cls-3" x="198.18" y="339.42" width="28.75" height="101.68"/><rect class="cls-4" x="226.92" y="289.29" width="20.12" height="151.81"/><rect class="cls-7" x="247.04" y="319.75" width="30.29" height="121.35"/><rect class="cls-7" x="306.83" y="296.39" width="19.27" height="144.7" transform="translate(102.52 -67.55) rotate(14.51)"/><rect class="cls-8" x="325.35" y="296.39" width="19.27" height="144.7" transform="translate(103.11 -72.19) rotate(14.51)"/><rect class="cls-7" x="343.75" y="296.39" width="19.27" height="144.7" transform="translate(103.69 -76.8) rotate(14.51)"/><rect class="cls-9" x="361.51" y="296.29" width="19.27" height="144.7" transform="translate(104.24 -81.25) rotate(14.51)"/><rect class="cls-8" x="388.67" y="339.42" width="38.18" height="101.68"/><rect class="cls-5" x="459.27" y="303.77" width="18.44" height="137.33"/><rect class="cls-10" x="426.85" y="327.13" width="32.43" height="113.97"/><rect class="cls-5" x="512.14" y="303.77" width="41.5" height="137.33"/><rect class="cls-5" x="46.38" y="521.29" width="28.78" height="138.81" transform="translate(-107.06 21.09) rotate(-10.54)"/><rect class="cls-7" x="76.07" y="521.29" width="28.78" height="138.81" transform="translate(-106.56 26.53) rotate(-10.54)"/><rect class="cls-5" x="105.57" y="522.46" width="28.78" height="138.81" transform="translate(-106.28 31.94) rotate(-10.54)"/><rect class="cls-7" x="134.14" y="522.46" width="28.78" height="138.81" transform="translate(-105.79 37.17) rotate(-10.54)"/><rect class="cls-3" x="186.43" y="511.31" width="16.59" height="151.41"/><rect class="cls-4" x="203.02" y="531.76" width="23.9" height="130.97"/><rect class="cls-8" x="226.92" y="516.12" width="29.89" height="146.6"/><rect class="cls-6" x="256.81" y="541.38" width="15.98" height="121.34"/><rect class="cls-6" x="305.27" y="493.27" width="11.2" height="169.46"/><rect class="cls-4" x="272.79" y="541.38" width="32.48" height="121.34"/><rect class="cls-4" x="344.43" y="643.63" width="154.5" height="19.1"/><rect class="cls-7" x="516.19" y="536.57" width="37.44" height="126.15"/><rect class="cls-5" x="326.11" y="629.19" width="186.03" height="14.43"/><rect class="cls-3" x="344.43" y="612.96" width="161.72" height="15.64"/><rect class="cls-6" x="326.11" y="597.24" width="142.39" height="15.71"/><rect class="cls-7" x="371.15" y="587.02" width="135" height="10.22"/><rect class="cls-3" x="344.43" y="559.43" width="124.07" height="27.43"/><rect class="cls-8" x="363.11" y="541.38" width="119.88" height="18.04"/></svg>