<svg id="Layer_1" data-name="Layer 1" xmlns="http://www.w3.org/2000/svg" viewBox="0 0 180.48 122.89"><defs><style>.cls-1{fill:#9a8479;}.cls-2{fill:#716558;}.cls-3{fill:#ffc7e0;}.cls-4{fill:#231f20;}</style></defs><path class="cls-1" d="M169.8,97.75a4.3,4.3,0,0,0-2.6.89A27.19,27.19,0,0,0,168.58,90c0-7.55-3-14.23-7.58-18.33a16.95,16.95,0,0,0-1.51-27.56,30.89,30.89,0,0,0,7.71-13.39c2.27-9.18-1.44-18-1.44-18S158.37,18.81,156.1,28a30.37,30.37,0,0,0,.36,14.6,16.82,16.82,0,0,0-12.07,0A30.42,30.42,0,0,0,144.68,28c-2.32-9.17-9.74-15.2-9.74-15.2s-3.67,8.84-1.35,18a30.74,30.74,0,0,0,7.76,13.32,16.94,16.94,0,0,0-1.56,27.6c-4.6,4.1-7.59,10.78-7.59,18.33,0,12.46,8.14,22.56,18.19,22.56,6.3,0,11.86-4,15.12-10a4.33,4.33,0,1,0,4.29-4.81Z"/><circle class="cls-2" cx="140.71" cy="108.32" r="6.95"/><circle class="cls-2" cx="158.76" cy="108.32" r="6.95"/><circle class="cls-2" cx="139.2" cy="79.31" r="5.44"/><circle class="cls-2" cx="161.31" cy="79.31" r="5.44"/><path class="cls-3" d="M142.68,27.9a20.59,20.59,0,0,1-.8,11.47,20.59,20.59,0,0,1-6.16-9.71,20.57,20.57,0,0,1,.8-11.46A20.59,20.59,0,0,1,142.68,27.9Z"/><path class="cls-3" d="M165.44,30.05a20.55,20.55,0,0,1-6.21,9.67,20.58,20.58,0,0,1-.74-11.47,20.55,20.55,0,0,1,6.21-9.67A20.58,20.58,0,0,1,165.44,30.05Z"/><circle class="cls-4" cx="143.89" cy="57.85" r="1.95"/><circle class="cls-4" cx="155.87" cy="57.85" r="1.95"/><ellipse class="cls-3" cx="150.07" cy="61.51" rx="1.74" ry="1.15"/><path class="cls-1" d="M109.72,96.41a4.28,4.28,0,0,0-2.6.89,27.25,27.25,0,0,0,1.38-8.64c0-7.55-3-14.23-7.59-18.32a17,17,0,0,0-1.5-27.57,30.94,30.94,0,0,0,7.71-13.38c2.27-9.18-1.45-18-1.45-18S98.28,17.46,96,26.64a30.54,30.54,0,0,0,.36,14.61,16.72,16.72,0,0,0-12.06,0,30.43,30.43,0,0,0,.28-14.61c-2.32-9.16-9.74-15.19-9.74-15.19s-3.67,8.83-1.35,18a31.07,31.07,0,0,0,7.76,13.32,17,17,0,0,0-1.56,27.6c-4.59,4.09-7.59,10.77-7.59,18.32,0,12.46,8.15,22.57,18.2,22.57,6.3,0,11.85-4,15.12-10a4.33,4.33,0,1,0,4.29-4.8Z"/><circle class="cls-2" cx="80.63" cy="106.97" r="6.95"/><circle class="cls-2" cx="98.67" cy="106.97" r="6.95"/><circle class="cls-2" cx="79.12" cy="77.96" r="5.44"/><circle class="cls-2" cx="101.22" cy="77.96" r="5.44"/><path class="cls-3" d="M82.59,26.56A20.51,20.51,0,0,1,81.8,38a20.59,20.59,0,0,1-6.16-9.7,20.64,20.64,0,0,1,.79-11.47A20.59,20.59,0,0,1,82.59,26.56Z"/><path class="cls-3" d="M105.35,28.7a20.64,20.64,0,0,1-6.2,9.68,20.58,20.58,0,0,1-.74-11.47,20.55,20.55,0,0,1,6.2-9.68A20.58,20.58,0,0,1,105.35,28.7Z"/><circle class="cls-4" cx="83.8" cy="56.5" r="1.95"/><circle class="cls-4" cx="95.78" cy="56.5" r="1.95"/><ellipse class="cls-3" cx="89.99" cy="60.17" rx="1.74" ry="1.15"/><path class="cls-1" d="M49.63,96.41a4.3,4.3,0,0,0-2.6.89,27.25,27.25,0,0,0,1.38-8.64c0-7.55-3-14.23-7.58-18.32a17,17,0,0,0-1.51-27.57A30.84,30.84,0,0,0,47,29.39c2.27-9.18-1.44-18-1.44-18s-7.4,6.06-9.66,15.24a30.41,30.41,0,0,0,.36,14.61,16.75,16.75,0,0,0-12.07,0,30.41,30.41,0,0,0,.29-14.61c-2.32-9.16-9.75-15.19-9.75-15.19s-3.66,8.83-1.34,18a30.87,30.87,0,0,0,7.76,13.32,17,17,0,0,0-1.57,27.6C15,74.43,12,81.11,12,88.66c0,12.46,8.14,22.57,18.19,22.57,6.3,0,11.86-4,15.12-10a4.33,4.33,0,1,0,4.29-4.8Z"/><circle class="cls-2" cx="20.54" cy="106.97" r="6.95"/><circle class="cls-2" cx="38.59" cy="106.97" r="6.95"/><circle class="cls-2" cx="19.03" cy="77.96" r="5.44"/><circle class="cls-2" cx="41.14" cy="77.96" r="5.44"/><path class="cls-3" d="M22.51,26.56A20.57,20.57,0,0,1,21.71,38a20.59,20.59,0,0,1-6.16-9.7,20.59,20.59,0,0,1,.8-11.47A20.59,20.59,0,0,1,22.51,26.56Z"/><path class="cls-3" d="M45.27,28.7a20.61,20.61,0,0,1-6.21,9.68,20.58,20.58,0,0,1-.74-11.47,20.61,20.61,0,0,1,6.21-9.68A20.58,20.58,0,0,1,45.27,28.7Z"/><circle class="cls-4" cx="23.72" cy="56.5" r="1.95"/><circle class="cls-4" cx="35.7" cy="56.5" r="1.95"/><ellipse class="cls-3" cx="29.9" cy="60.17" rx="1.74" ry="1.15"/></svg>