<svg id="Layer_1" data-name="Layer 1" xmlns="http://www.w3.org/2000/svg" viewBox="0 0 434 574.6"><defs><style>.cls-1{fill:#1200ff;}.cls-2{fill:#2ce1ff;}.cls-3{fill:#2cacde;}.cls-4{fill:#a7f3ff;}.cls-5{fill:#75c7ff;}.cls-6{fill:none;stroke:#2ce1ff;stroke-miterlimit:10;stroke-width:6px;}.cls-7{fill:#eb008b;}.cls-8{font-size:72px;fill:#ffe600;font-family:Soleil-Italic, Soleil;font-style:italic;}</style></defs><rect class="cls-1" x="40.69" y="235.58" width="344.87" height="292.42"/><path class="cls-2" d="M12.05,206.81V551.46H417.61V206.81ZM371.68,504.53H58v-250H371.68Z"/><polygon class="cls-3" points="12.05 206.81 57.99 252.96 371.68 252.96 417.61 206.81 12.05 206.81"/><polygon class="cls-4" points="417.61 551.46 371.68 504.53 57.99 504.53 12.05 551.46 417.61 551.46"/><polygon class="cls-5" points="417.61 206.81 371.68 252.96 371.68 504.53 417.61 551.46 417.61 206.81"/><path class="cls-6" d="M12.05,206.81,200.64,21.57a20.26,20.26,0,0,1,28.39,0L417.61,206.81"/><circle class="cls-7" cx="214.83" cy="30.5" r="16.07"/><text class="cls-8" transform="translate(110.08 365.13)">CLICK <tspan x="8.78" y="86.4">HERE</tspan></text></svg>