<svg id="Layer_1" data-name="Layer 1" xmlns="http://www.w3.org/2000/svg" viewBox="0 0 922.62 740.77"><defs><style>.cls-1{fill:#abd574;}.cls-2{fill:#c0e6f6;}.cls-3{fill:#fff174;}.cls-4{fill:#eb008b;}.cls-5{fill:#fff100;}.cls-6{fill:#006838;}.cls-7{fill:#2ce1ff;}.cls-8{fill:#ff7bb7;}.cls-9{fill:#ec297b;}</style></defs><rect class="cls-1" x="179.76" y="105.69" width="561.37" height="534.31"/><path class="cls-2" d="M179.76,105.69H748.58V458.13s-150.25-50.05-276.21-51.52-292.61,39.75-292.61,39.75Z"/><circle class="cls-3" cx="348.05" cy="210.44" r="68.45"/><circle class="cls-4" cx="548.63" cy="310.94" r="15.38"/><circle class="cls-4" cx="549.94" cy="341.7" r="15.38"/><circle class="cls-4" cx="579.39" cy="349.22" r="15.38"/><circle class="cls-4" cx="577.44" cy="300.32" r="15.38"/><circle class="cls-4" cx="596.91" cy="324.02" r="15.38"/><circle class="cls-5" cx="570.05" cy="325.02" r="15.38"/><path class="cls-6" d="M561,419.42a10.34,10.34,0,0,1-4.37.39c-15.79-.5-30.23-13.58-32.3-29.23a29,29,0,0,1,28.15,15c-.62-16.69-1.21-33.7,3.34-49.77,3.22-2,6.85-4,8-7.59a11.81,11.81,0,0,0,.79,6.1C558.14,375.38,554.16,398.46,561,419.42Z"/><path class="cls-7" d="M726.77,105.69H207.21a26.69,26.69,0,0,0-26.69,26.69V613.32A26.69,26.69,0,0,0,207.21,640H726.77a26.69,26.69,0,0,0,26.68-26.68V132.38A26.69,26.69,0,0,0,726.77,105.69Zm-29.37,79v173H482.17V158H670.72A26.68,26.68,0,0,1,697.4,184.65ZM263.26,158H451.8v199.7H236.57v-173A26.68,26.68,0,0,1,263.26,158ZM236.57,561V388H451.8v199.7H263.26A26.69,26.69,0,0,1,236.57,561Zm434.15,26.69H482.17V388H697.4V561A26.69,26.69,0,0,1,670.72,587.73Z"/><rect class="cls-7" x="38.38" y="32.31" width="857.2" height="22.14"/><path class="cls-8" d="M874.12,503.86c5,60,20,124.36-2.84,180.06l-10.79,26.33c-1.21,2.94-2.5,6-4.91,8.09-4.35,3.77-10.92,3.22-16.46,1.68-14.4-4-31.87-13.88-40-26.42-5.78,21.06-38.2,23-53.68,7.55s-18.07-39.23-18.85-61a791.07,791.07,0,0,1,18.78-200.94c6.25-27.88,14-56.09,11.56-84.56-5.59-64.71-60.63-112.18-94.34-167.7a274.4,274.4,0,0,1-39.11-157c83.84-4.67,167.24-8.08,250.62,1.79C855.27,187.07,861,347.9,874.12,503.86Z"/><path class="cls-8" d="M59.71,503c-5.06,60-20,124.36,2.84,180.06l10.79,26.33c1.21,3,2.5,6,4.9,8.09,4.35,3.77,10.93,3.22,16.47,1.68,14.4-4,31.87-13.88,40-26.41,5.78,21.05,38.2,23,53.68,7.55s18.07-39.23,18.85-61.05a791.56,791.56,0,0,0-18.78-200.95c-6.25-27.88-14-56.09-11.57-84.55,5.6-64.72,60.64-112.18,94.35-167.71a274.55,274.55,0,0,0,39.11-157C226.52,24.41,143.12,21,59.74,30.88,78.56,186.25,72.84,347.08,59.71,503Z"/><path class="cls-9" d="M775.59,236.38l-2-36.9c2.65-.94,5.53,1.31,6.51,4s.67,5.56.76,8.38a29.15,29.15,0,0,0,10.69,21.43l27.5-44.16a262.61,262.61,0,0,1-3.52,46.35c-1.52,9.17-3.94,18.63-11.67,24.55-6.92,5.29-16,6.82-24.48,6.5-13.18-.5-19.81-7.72-25.31-19-4.07-8.34-9.92-17.88-9.52-27.4,4.15,4.55,8.53,8.57,14.06,11.45C760,232.22,775.64,237.34,775.59,236.38Z"/><path class="cls-9" d="M860,325.83a21.66,21.66,0,0,0,5.19-20c-8.4,7.92-17.07,16-27.79,20.28-11.12,4.42-23.46,4.33-35.42,4-17.62-.49-36.1-1.63-51.11-10.89-.94,6.93,3.12,15.3,9.07,19S773,342.92,780,343.39C807,345.2,841.3,345.43,860,325.83Z"/><path class="cls-9" d="M807.66,387.25a123.47,123.47,0,0,0-11.87,50.5,146.32,146.32,0,0,0,19.33-28A122.84,122.84,0,0,0,826,442.6a51.24,51.24,0,0,0,2.21-43.71c-2.54-6.05-7-12.09-13.49-13.14a12.31,12.31,0,0,0-11.81,5"/><path class="cls-9" d="M159.29,234.56l2-36.9c-2.66-.94-5.53,1.31-6.51,4s-.67,5.56-.76,8.38a29.15,29.15,0,0,1-10.69,21.43l-27.5-44.16a262.54,262.54,0,0,0,3.52,46.35c1.52,9.17,3.94,18.63,11.67,24.55,6.92,5.29,16,6.82,24.48,6.5,13.17-.5,19.81-7.72,25.31-19,4.06-8.34,9.92-17.88,9.52-27.4-4.16,4.55-8.53,8.57-14.06,11.45C174.93,230.4,159.24,235.52,159.29,234.56Z"/><path class="cls-9" d="M74.91,324a21.63,21.63,0,0,1-5.18-20c8.39,7.92,17.07,16,27.79,20.28,11.12,4.42,23.46,4.33,35.42,4,17.62-.49,36.1-1.63,51.11-10.89.94,6.93-3.12,15.3-9.07,19s-13.12,4.74-20.09,5.21C127.88,343.38,93.58,343.61,74.91,324Z"/><path class="cls-9" d="M127.22,385.43a123.47,123.47,0,0,1,11.87,50.5,146.32,146.32,0,0,1-19.33-28,122.84,122.84,0,0,1-10.84,32.85,51.28,51.28,0,0,1-2.22-43.71c2.55-6.05,7-12.09,13.5-13.14a12.31,12.31,0,0,1,11.81,5"/></svg>