<svg id="Layer_1" data-name="Layer 1" xmlns="http://www.w3.org/2000/svg" viewBox="0 0 143.48 176.08"><defs><style>.cls-1{fill:#90278e;}.cls-2{fill:#231f20;}.cls-3{fill:none;stroke:#231f20;stroke-linecap:round;stroke-miterlimit:10;stroke-width:3px;}</style></defs><path class="cls-1" d="M71.74,0A71.74,71.74,0,0,0,0,71.74V165a13.3,13.3,0,0,0,2.44,7.65,8.1,8.1,0,0,0,6.9,2.95c5.66-.47,7.54-3.66,10.23-6.61,8.13-9,14.16-5.46,18.84-1.24,3.89,3.51,6.49,8.36,13.49,8.36,7.3,0,9.8-8.17,14-11a11.17,11.17,0,0,1,5.8-1.91,11.2,11.2,0,0,1,5.8,1.91c4.24,2.87,6.73,11,14,11,7,0,9.61-4.85,13.49-8.36,4.68-4.22,10.71-7.72,18.85,1.24,2.69,2.95,4.57,6.14,10.22,6.61a8.12,8.12,0,0,0,6.91-2.95,13.37,13.37,0,0,0,2.44-7.65V71.74A71.74,71.74,0,0,0,71.74,0Z"/><circle class="cls-2" cx="44.41" cy="76.11" r="9.37"/><circle class="cls-2" cx="99.23" cy="76.11" r="9.37"/><path class="cls-3" d="M63.21,84.55c3.49,4.55,13.27,4.76,17.06,0"/></svg>