<svg id="Layer_1" data-name="Layer 1" xmlns="http://www.w3.org/2000/svg" viewBox="0 0 1871.41 339.03"><defs><style>.cls-1{fill:#f6921e;}.cls-2{fill:#eb008b;}</style></defs><path class="cls-1" d="M936.36,13.85C1390.88,13.85,1855,71,1855,167.36S1413.64,324.44,936.36,324.44s-920-67.83-920-155.29S431.86,13.85,936.36,13.85Z"/><path class="cls-2" d="M950.07,35.67c408.21,0,825,45.68,825,122.76S1378.72,284,950.07,284,123.84,229.8,123.84,159.86,497,35.67,950.07,35.67Z"/><path class="cls-1" d="M951,68.87c345.15,0,697.59,30.54,697.59,82.07s-335.16,84-697.59,84-698.6-36.26-698.6-83S567.88,68.87,951,68.87Z"/></svg>