<svg id="Layer_1" data-name="Layer 1" xmlns="http://www.w3.org/2000/svg" viewBox="0 0 1871.41 339.03"><defs><style>.cls-1{fill:#f6921e;}.cls-2{fill:#eb008b;}.cls-3{fill:#f05a28;}</style></defs><path class="cls-1" d="M936.36,13.85C1390.88,13.85,1855,71,1855,167.36S1413.64,324.44,936.36,324.44c-168.2,0-332.1-8.42-473.85-23.16C392.43,294,348.59,189,291.51,178.91c-66.38-11.76-88.71,5.45-131.22-9.4-56.82-19.84-143.9,23.32-143.9-.36C16.39,81.68,431.86,13.85,936.36,13.85Z"/><path class="cls-2" d="M950.07,35.67c408.21,0,825,45.68,825,122.76S1378.72,284,950.07,284c-179.41,0-353.38-9.5-495-25.68-33.93-3.88-55.41-69.18-85.27-73.78-43.66-6.74-21.4-24.6-54.4-32.68-32.3-7.92-69.49,16.94-89.37,8-26.43-11.94-102.15,13.35-102.15,0C123.84,89.91,497,35.67,950.07,35.67Z"/><path class="cls-1" d="M951,68.87c345.15,0,697.59,30.54,697.59,82.07s-335.16,84-697.59,84-698.6-36.26-698.6-83S567.88,68.87,951,68.87Z"/><path class="cls-3" d="M448.41,297.51C408.45,292,378,273.55,344,252c-14.58-9.24-49.82-49.1-64.66-57.9-64.45-38.18-130-6.4-204.83-9.91-17.88-.84-42.42-1.29-56.57-10.66,16.57-20.51,48-29.29,73.76-35.05a726.53,726.53,0,0,1,89-14.2c17.91-1.73,36-2.78,53.86-.28,14.69,2.06,28.94,6.51,43,11.22,43.88,14.67,88.78,33.37,118.29,69,22,26.58,44.94,52.92,70.55,76.06,4.27,3.86,20.88,17.8,21.16,23.55C478.48,305.93,457.58,298.79,448.41,297.51Z"/></svg>