<svg id="Layer_1" data-name="Layer 1" xmlns="http://www.w3.org/2000/svg" viewBox="0 0 886.72 732.41"><defs><style>.cls-1{fill:#abd574;}.cls-2{fill:#c0e6f6;}.cls-3{fill:#fff174;}.cls-4{fill:#eb008b;}.cls-5{fill:#fff100;}.cls-6{fill:#006838;}.cls-7{fill:#2ce1ff;}.cls-8{fill:#ff7bb7;}.cls-9{fill:#ec297b;}</style></defs><rect class="cls-1" x="159.04" y="98.24" width="578.31" height="534.31"/><path class="cls-2" d="M159,98.24H737.35V450.68s-152.76-50.05-280.82-51.52S159,438.9,159,438.9Z"/><circle class="cls-3" cx="327.32" cy="202.99" r="68.45"/><circle class="cls-4" cx="527.91" cy="303.49" r="15.38"/><circle class="cls-4" cx="529.22" cy="334.25" r="15.38"/><circle class="cls-4" cx="558.67" cy="341.76" r="15.38"/><circle class="cls-4" cx="556.72" cy="292.87" r="15.38"/><circle class="cls-4" cx="576.19" cy="316.57" r="15.38"/><circle class="cls-5" cx="549.32" cy="317.57" r="15.38"/><path class="cls-6" d="M540.27,412a10.33,10.33,0,0,1-4.37.39c-15.78-.51-30.22-13.58-32.3-29.24a29,29,0,0,1,28.16,15c-.62-16.69-1.21-33.71,3.34-49.77,3.21-2,6.85-4,8-7.6a11.75,11.75,0,0,0,.79,6.11C537.42,367.93,533.44,391,540.27,412Z"/><path class="cls-7" d="M706,98.24H186.48a26.69,26.69,0,0,0-26.68,26.69V605.86a26.69,26.69,0,0,0,26.68,26.69H706a26.69,26.69,0,0,0,26.69-26.69V124.93A26.69,26.69,0,0,0,706,98.24Zm-29.36,79v173H461.45V150.51H650A26.69,26.69,0,0,1,676.68,177.2ZM242.53,150.51H431.08v199.7H215.85v-173A26.69,26.69,0,0,1,242.53,150.51ZM215.85,553.59v-173H431.08v199.7H242.53A26.69,26.69,0,0,1,215.85,553.59ZM650,580.28H461.45V380.58H676.68v173A26.69,26.69,0,0,1,650,580.28Z"/><rect class="cls-7" x="17.66" y="24.85" width="857.2" height="22.14"/><path class="cls-8" d="M852.68,15.36h-238c-11.64.17-24.55,6.76-35.93,9.25-6.58,51-4.23,103.6,11.63,152.48S636.12,271,678,300.69C627.62,358,602.28,432,587.71,506.84a1059,1059,0,0,0-18.65,161.05c19.83,26.83,59.06,36.13,85.25,15.46,2.54,18.06,21.65,29.51,39.77,31.61a76.91,76.91,0,0,0,67.46-27.66c16.41,13.11,35.2,20,56.11,18,11.61-1.11,25.37-7.81,25-19.47,6.07-2.42,8.24-3.22,9.86-9.55.39-1.52,2.75-3.73,3.81-4.87Z"/><path class="cls-8" d="M39.84,12.2H277.89c11.65.17,24.56,6.76,35.94,9.25,6.57,51,4.22,103.6-11.64,152.48s-45.78,93.87-87.7,123.6c50.42,57.25,75.76,131.26,90.32,206.15a1057.73,1057.73,0,0,1,18.66,161.05c-19.84,26.83-59.06,36.13-85.26,15.46-2.54,18.06-21.65,29.51-39.76,31.61A76.91,76.91,0,0,1,131,684.14c-16.41,13.11-35.21,20-56.12,18-11.6-1.11-25.36-7.82-25-19.47-6.07-2.42-8.25-3.23-9.86-9.55-.39-1.52-2.75-3.73-3.82-4.88Z"/><path class="cls-9" d="M688.1,198.39c10.43,28.47,36.57,50.59,66.38,56.17a145.43,145.43,0,0,1-10.14-69.17,103.43,103.43,0,0,0,35.14,57.81,114.36,114.36,0,0,1,3.33-49.79c.84-2.83,2.3-6.09,5.22-6.56,4.67-.74,6.54,5.82,6.43,10.56q-.62,27.35-3,54.61c-2,22.77-14,51.84-41.2,38.43a113.37,113.37,0,0,1-51.58-51.58A103.32,103.32,0,0,1,688.1,198.39Z"/><path class="cls-9" d="M748.62,363c-23.6,10-40.27,34.6-40.88,60.24a68.8,68.8,0,0,1,35.48-30.85A73.25,73.25,0,0,0,734.09,436,80.74,80.74,0,0,1,765,400.08a145.12,145.12,0,0,0,18.21,31.37c5.73-13.66,3.24-29.24.15-43.73-1.28-6-2.74-12.22-6.43-17.14-7.87-10.5-25.76-11.1-34.32-1.15"/><path class="cls-9" d="M209,198.39C198.55,226.86,172.4,249,142.6,254.56a145.3,145.3,0,0,0,10.13-69.17A103.36,103.36,0,0,1,117.6,243.2a114.37,114.37,0,0,0-3.34-49.79c-.84-2.83-2.3-6.09-5.21-6.56-4.68-.74-6.54,5.82-6.44,10.56q.61,27.35,3,54.61c2,22.77,14,51.84,41.2,38.43a113.35,113.35,0,0,0,51.57-51.58A103.16,103.16,0,0,0,209,198.39Z"/><path class="cls-9" d="M148.46,363c23.6,10,40.27,34.6,40.88,60.24a68.83,68.83,0,0,0-35.48-30.85A73.31,73.31,0,0,1,163,436,80.61,80.61,0,0,0,132,400.08a144.3,144.3,0,0,1-18.21,31.37c-5.73-13.66-3.24-29.24-.15-43.73,1.28-6,2.74-12.22,6.43-17.14,7.88-10.5,25.76-11.1,34.32-1.15"/><path class="cls-9" d="M856.28,304.22c-55,28.92-125.56,25.5-177.5-8.59-4.2,5.47-9.24,11.38-13.44,16.86,56,31.89,126.21,37.51,186.55,14.95Z"/><path class="cls-9" d="M36.24,302.45c55,28.92,125.56,25.5,177.5-8.6,4.2,5.48,9.24,11.39,13.44,16.86-56,31.89-126.21,37.52-186.55,15Z"/></svg>