<svg id="Layer_1" data-name="Layer 1" xmlns="http://www.w3.org/2000/svg" viewBox="0 0 886.72 732.41"><defs><style>.cls-1{fill:#abd574;}.cls-2{fill:#c0e6f6;}.cls-3{fill:#fff174;}.cls-4{fill:#eb008b;}.cls-5{fill:#fff100;}.cls-6{fill:#006838;}.cls-7{fill:#2ce1ff;}.cls-8{fill:#ff7bb7;}.cls-9{fill:#ec297b;}</style></defs><rect class="cls-1" x="159.04" y="98.24" width="578.31" height="534.31"/><path class="cls-2" d="M159,98.24H737.35V450.68s-152.76-50.05-280.82-51.52S159,438.9,159,438.9Z"/><circle class="cls-3" cx="327.32" cy="202.99" r="68.45"/><circle class="cls-4" cx="527.91" cy="303.49" r="15.38"/><circle class="cls-4" cx="529.22" cy="334.25" r="15.38"/><circle class="cls-4" cx="558.67" cy="341.76" r="15.38"/><circle class="cls-4" cx="556.72" cy="292.87" r="15.38"/><circle class="cls-4" cx="576.19" cy="316.57" r="15.38"/><circle class="cls-5" cx="549.32" cy="317.57" r="15.38"/><path class="cls-6" d="M540.27,412a10.33,10.33,0,0,1-4.37.39c-15.78-.51-30.22-13.58-32.3-29.24a29,29,0,0,1,28.16,15c-.62-16.69-1.21-33.71,3.34-49.77,3.21-2,6.85-4,8-7.6a11.75,11.75,0,0,0,.79,6.11C537.42,367.93,533.44,391,540.27,412Z"/><path class="cls-7" d="M706,98.24H186.48a26.69,26.69,0,0,0-26.68,26.69V605.86a26.69,26.69,0,0,0,26.68,26.69H706a26.69,26.69,0,0,0,26.69-26.69V124.93A26.69,26.69,0,0,0,706,98.24Zm-29.36,79v173H461.45V150.51H650A26.69,26.69,0,0,1,676.68,177.2ZM242.53,150.51H431.08v199.7H215.85v-173A26.69,26.69,0,0,1,242.53,150.51ZM215.85,553.59v-173H431.08v199.7H242.53A26.69,26.69,0,0,1,215.85,553.59ZM650,580.28H461.45V380.58H676.68v173A26.69,26.69,0,0,1,650,580.28Z"/><rect class="cls-7" x="17.66" y="24.85" width="857.2" height="22.14"/><path class="cls-8" d="M853.4,496.4c5.05,60,20,124.37-2.84,180.07l-10.8,26.32c-1.2,3-2.49,6-4.9,8.09-4.35,3.77-10.92,3.22-16.47,1.68-14.4-4-31.86-13.88-40-26.41-5.78,21.06-38.2,23-53.67,7.55s-18.07-39.23-18.86-61.05A791.57,791.57,0,0,1,724.64,431.7c6.24-27.88,14-56.09,11.56-84.55-5.59-64.72-60.64-112.18-94.34-167.71a274.37,274.37,0,0,1-39.11-157c83.84-4.68,167.23-8.09,250.62,1.79C834.55,179.61,840.26,340.45,853.4,496.4Z"/><path class="cls-8" d="M39,495.59c-5,60-20,124.36,2.84,180.06L52.62,702c1.21,2.94,2.49,6,4.9,8.09,4.35,3.76,10.92,3.22,16.47,1.67,14.4-4,31.86-13.88,40-26.41,5.78,21.06,38.2,23,53.67,7.55s18.08-39.23,18.86-61a791,791,0,0,0-18.79-200.94c-6.24-27.89-14-56.09-11.56-84.56,5.59-64.71,60.64-112.18,94.35-167.7a274.47,274.47,0,0,0,39.1-157C205.79,17,122.4,13.54,39,23.42,57.84,178.79,52.12,339.63,39,495.59Z"/><path class="cls-9" d="M754.86,228.93l-2-36.9c2.66-.94,5.54,1.31,6.52,3.95s.67,5.56.76,8.37a29.13,29.13,0,0,0,10.68,21.43l27.5-44.15A262.67,262.67,0,0,1,794.84,228c-1.52,9.16-3.94,18.63-11.68,24.54-6.91,5.29-16,6.82-24.47,6.5-13.18-.49-19.82-7.72-25.31-19-4.07-8.34-9.92-17.88-9.52-27.41,4.15,4.56,8.52,8.57,14.06,11.45C739.22,224.76,754.92,229.89,754.86,228.93Z"/><path class="cls-9" d="M839.24,318.38a21.69,21.69,0,0,0,5.19-20c-8.4,7.92-17.07,16-27.8,20.29-11.12,4.42-23.45,4.32-35.41,4-17.63-.5-36.1-1.63-51.11-10.89-.94,6.92,3.12,15.29,9.07,19s13.12,4.74,20.09,5.2C786.27,337.75,820.57,338,839.24,318.38Z"/><path class="cls-9" d="M786.94,379.79a123.35,123.35,0,0,0-11.87,50.5,146.77,146.77,0,0,0,19.33-28,122.72,122.72,0,0,0,10.84,32.85,51.22,51.22,0,0,0,2.21-43.7c-2.54-6.05-7-12.1-13.49-13.15a12.34,12.34,0,0,0-11.81,5"/><path class="cls-9" d="M138.57,227.11l2-36.9c-2.66-.94-5.54,1.31-6.51,3.95s-.67,5.56-.77,8.38A29.09,29.09,0,0,1,122.58,224l-27.5-44.15a263.62,263.62,0,0,0,3.51,46.35c1.53,9.16,3.94,18.63,11.68,24.54,6.92,5.29,16,6.82,24.47,6.5,13.18-.49,19.82-7.72,25.31-19,4.07-8.34,9.92-17.88,9.52-27.41-4.15,4.56-8.52,8.57-14.06,11.45C154.21,222.94,138.52,228.07,138.57,227.11Z"/><path class="cls-9" d="M54.19,316.56a21.66,21.66,0,0,1-5.18-20c8.39,7.92,17.06,16,27.79,20.29,11.12,4.42,23.45,4.33,35.41,4,17.63-.5,36.11-1.63,51.11-10.89.94,6.92-3.12,15.29-9.07,19s-13.11,4.74-20.09,5.2C107.16,335.93,72.86,336.15,54.19,316.56Z"/><path class="cls-9" d="M106.49,378a123.36,123.36,0,0,1,11.88,50.5,146.37,146.37,0,0,1-19.34-28A122.34,122.34,0,0,1,88.2,433.32,51.18,51.18,0,0,1,86,389.62c2.55-6.05,7-12.1,13.5-13.15a12.35,12.35,0,0,1,11.81,5"/></svg>